
<svg xmlns="http://www.w3.org/2000/svg" viewBox="0 0 32 32" width="64" height="64">
  <path d="M15.63 31.388l-7.135-2.56V18.373l7.135 2.43zm1.3 0l7.135-2.56V18.373l-7.135 2.432zm-7.7-13.8l7.2-2.033 6.696 2.16-6.696 2.273zm-2.092-3.09V8.246l7.09-1.81v6.157zm1.307-7.06L15.5 5.961l7.13 1.597-7.13 2.346zM16.93 8.6l7.09-2.346v6.054zm.198 17.997l7.135-2.56V18.373l-7.135 2.432zm8.434-23.566l-9.92-3.03L0 5.405v19.496L15.642 32l9.92-3.03L32 5.675zm-9.258.21l.107-.03-.107.03z" fill="#f90" fill-rule="evenodd"/>
</svg>
