
<svg xmlns="http://www.w3.org/2000/svg" viewBox="0 0 32 32" width="64" height="64">
  <path fill="#2396ed" d="M32 14.224c-4.65-.711-9.61.384-12.38 1.896-.495-.359-1.093-1.009-1.093-1.745 0-.963.576-1.98 1.66-2.692-1.243-.48-4.115-.344-6.34.384-2.225.728-4.368 2.304-5.611 4.672C6.565 17.366 6 17.41 5.172 17.67c-.744.232-1.804.809-2.252 1.304-.575.616-.832 1.069-.607 1.729.352 1.024 2.752 1.665 4.368.871.815-.4 1.78-1.616 2.083-2.456 1.156-.008 3.564-.04 4.95-.04 1.74 0 3.12.128 4.143.328-.12.52-.256 1.224-.319 1.672-1.623.656-2.635 1.56-3.211 2.264-1.063 1.288-1.575 3.016-.576 4.344 1.223 1.624 5.052 1.744 7.148-.12 1.251-1.112 1.939-2.672 1.932-4.608 3.523-.4 6.516-1.968 8.148-3.656.911-.944 1.735-2.384 1.903-3.496.145-.944-.065-1.848-.88-2.576zm-21.776 2.456h-2.76c.12-.728.352-1.384.672-1.992.368-.672.863-1.264 1.371-1.704a3.951 3.951 0 0 1 .704-.528c.48-.288 1.08-.544 1.667-.584h.288l.128.008c.607.056 1.083.288 1.435.64.272.272.463.6.6.968.063.144.096.296.12.44v2.76l-4.224-.008zm4.224 0v-2.76c0-.144.056-.288.12-.44a2.2 2.2 0 0 1 .6-.96c.352-.352.827-.584 1.435-.648a2.963 2.963 0 0 1 .416-.008c.584.04 1.187.296 1.667.584.24.152.472.328.704.528.508.44 1.003 1.032 1.371 1.704.32.608.552 1.264.672 1.992h-6.984zm-9.592.008h-2.76v-2.76c.027-.152.065-.296.127-.44.136-.368.327-.696.6-.968.351-.352.828-.584 1.435-.64.096-.7.192-.1.287-.008.585.04 1.188.296 1.667.584.24.152.473.328.704.528.509.44 1.003 1.032 1.372 1.704.319.608.551 1.264.671 1.992H4.856zm6.984 0H8.08c.12-.728.352-1.384.672-1.992.368-.672.863-1.264 1.372-1.704a4 4 0 0 1 .704-.528c.479-.288 1.082-.544 1.667-.584.096-.8.192-.7.288.008.607.056 1.083.288 1.435.64.271.272.463.6.599.968.063.144.096.288.12.44v2.76h-2.096zm6.984 0H14.08V13.92c.023-.152.056-.296.12-.44.135-.368.327-.696.599-.968.352-.352.828-.584 1.435-.64a2.963 2.963 0 0 1 .416-.008c.584.04 1.187.296 1.667.584.24.152.472.328.704.528.508.44 1.003 1.032 1.371 1.704.32.608.552 1.264.672 1.992h-2.24zM21.12 16.68h-2.76c.128-.728.36-1.384.68-1.992.36-.672.863-1.264 1.371-1.704.232-.2.464-.376.704-.528.48-.288 1.084-.544 1.668-.584.096-.8.192-.7.288.008.599.056 1.075.288 1.435.64.271.272.464.6.599.968.064.144.097.288.12.44v2.76h-2.104zm2.104-2.76v2.76h2.76c.12-.728.352-1.384.672-1.992.368-.672.863-1.264 1.372-1.704a3.951 3.951 0 0 1 .704-.528c.48-.288 1.083-.544 1.667-.584h.288c.607.056 1.084.288 1.435.64.272.272.464.6.6.968.064.144.096.296.12.44v2.76h-2.76a19.63 19.63 0 0 0-.673-1.992c-.368-.672-.863-1.264-1.371-1.704a3.985 3.985 0 0 0-.704-.528c-.48-.288-1.083-.544-1.667-.584a2.963 2.963 0 0 0-.416-.008c-.584.04-1.188.296-1.668.584a3.985 3.985 0 0 0-.704.528c-.508.44-1.01 1.032-1.371 1.704-.32.608-.553 1.264-.673 1.992"/>
</svg>
