
<svg xmlns="http://www.w3.org/2000/svg" viewBox="0 0 32 32" width="64" height="64">
  <path fill="#f05a28" d="M16 0C7.26 0 0 7.26 0 16s7.26 16 16 16 16-7.26 16-16S24.74 0 16 0zM3.77 16c0-1.64.35-3.2.98-4.6 1.34 1.37 3.27 2.07 5.16 2.06 2.96.03 5.6-1.58 6.92-4.61.44 1.72.64 3.56.66 5.16v.6c0 1.54-.23 3.01-.64 4.37-.39.01-.78.05-1.17.05h-.33c-1.43.02-2.85-.26-4.17-.82-1.79-.82-3.03-2.43-3.84-4.9-.59 3.2-2.06 5.48-3.63 5.48a1.3 1.3 0 0 1-.18-.01 12.31 12.31 0 0 1 .24-2.78zm12.47 6.56a10.37 10.37 0 0 0 .24-.67c.39.43.81.82 1.27 1.17a7.4 7.4 0 0 1-1.5-.51zm1.64-2.94c-.2.53-.46 1.01-.77 1.42a9.06 9.06 0 0 1-1.23-1.8 7.32 7.32 0 0 0 2 .37zm2.46 3.61a12.43 12.43 0 0 1-2.5.94c.79-.49 1.48-1.14 2.04-1.92.17.32.33.65.47.98zm.18-5.85c-.86-.48-1.8-.76-2.77-.83 1.55-.53 2.48-1.13 2.92-1.33a12.09 12.09 0 0 1-.15 2.16zm4.26 2.92c-1.03-1.89-2.68-3.28-4.22-3.92.5-1.63.68-3.12.75-4.06.9 1.78 2.53 2.67 4.22 2.6a12.3 12.3 0 0 1-.75 5.38zm-6.47-8.11c-.13.58-.28 1.16-.47 1.73-1.04-.89-2.13-1.32-3.93-1.32h-.6c.82-1.26 2.16-1.93 3.62-1.95a9.18 9.18 0 0 1 1.38 1.55zm-.71 7.46c-.53 1.72-1.43 2.42-2.34 3.12.27-.98.46-2.01.55-3.12.93.3 1.29.21 1.79 0zm-3.17 3.65c.9 0 2.25-.58 3.64-3.75a5.92 5.92 0 0 0 1.83-.19c.54 1.33 1.25 2.49 2.19 3.44-2.38 2.7-6.5 3.28-9.55 1.33a12.83 12.83 0 0 0 1.9-.83zM3.11 19.32c.31.07.62.11.93.11 2.63 0 4.17-2.52 4.83-5.07a8.75 8.75 0 0 0 4.06 4.83c.13 1.78.43 3.4.95 4.85-5.5 3.19-12.26 1.55-15.8-3.65 1.48.48 3.09.24 4.69-.85a.73.73 0 0 0 .33-.21z"/>
</svg>
