
<svg xmlns="http://www.w3.org/2000/svg" viewBox="0 0 32 32" width="64" height="64">
  <path fill="#d33833" d="M5.23 12.045c-4.757-2.358-4.102-14.3 6.17-11.265.017-3.006 2.37-1.83 2.796-.59 3.256-.928 5.8-.642 6.383-.167 3.333-5.678 10.34 1.429 5.05 3.97 11.652 10.724-2.07 31.148-20.377 8.18"/>
  <path d="M15.734 31.127a.776.776 0 0 1-.76-.64l-1.594-7.615c-.084-.336.07-.692.369-.844.994-.497 1.851-1.163 2.614-1.963.263-.267.7-.264.94-.036l5.308 5.08c.202.193.27.491.174.75-.094.26-.332.447-.612.459l-6.424.809zm-.056-7.842l1.218 5.823 4.316-.545-3.552-3.4c-.687.607-1.407 1.136-2.186 1.582z" fill="#d33833"/>
  <path d="M14.986 31.13l-6.282-.798c-.271-.035-.495-.235-.557-.498-.063-.262.04-.54.253-.7l5.308-3.988c.23-.175.59-.161.79.03.7.68 1.393 1.248 2.133 1.714.292.183.39.558.232.86l-1.594 3.21c-.102.206-.304.348-.535.373-.26.004-.52.008-.078.006zm-4.763-1.752l4.233.54.86-1.73c-.584-.367-1.135-.785-1.66-1.257z" fill="#d33833"/>
  <path d="M21.34 26.77c-.097 0-.193-.018-.288-.055l-5.308-2.163c-.3-.12-.481-.428-.445-.748.103-.918.111-1.827.025-2.75-.033-.34.174-.654.508-.768l5.308-1.852c.387-.135.813.074.952.464.139.389-.066.82-.454.955l-4.842 1.69c.026.598.014 1.195-.039 1.792l4.871 1.984c.39.16.578.6.418.99-.12.298-.408.48-.715.461z" fill="#d33833"/>
  <path d="M11.078 23.872c-.389 0-.722-.28-.783-.673-.067-.429.228-.83.657-.9l6.282-.989c.196-.3.393.028.566.164.173.136.282.342.298.565.08 1.09.265 2.17.55 3.226.102.37-.114.752-.484.858L11.87 23.843c-.26.02-.53.029-.792.029zm5.63-1.596l-3.73.587.886.403c.47-.324.9-.687 1.279-1.082.554-1.143.894-1.924 1.564.92z" fill="#d33833"/>
  <path d="M11.078 23.872c-.273 0-.539-.126-.71-.353-.279-.37-.206-.893.164-1.172l4.073-3.108c.15-.115.351-.166.54-.142.215.03.412.139.556.283a18.7 18.7 0 0 0 1.944 1.924c.338.288.37.795.069 1.133-.307.334-.817.37-1.158.08a20.896 20.896 0 0 1-1.57-1.545L11.74 23.63c-.208.159-.45.242-.662.242z" fill="#d33833"/>
  <path d="M12.23 19.305c-.167 0-.336-.045-.491-.139l-4.073-2.513c-.364-.225-.475-.699-.25-1.059a.792.792 0 0 1 1.066-.283l3.717 2.291 1.982-1.469c-.477-.742-.87-1.528-1.202-2.337l-4.63 1.44c-.409.126-.845-.092-.974-.489-.129-.397.092-.82.489-.949l5.308-1.651c.321-.099.67.01.88.284.21.274.233.645.06.946a20.19 20.19 0 0 0 1.945 3.493c.252.361.162.857-.199 1.11l-3.071 2.28c-.147.107-.315.044-.557.044z" fill="#d33833"/>
  <path d="M9.793 13.488c-.132 0-.265-.026-.394-.081a.797.797 0 0 1-.407-1.045l2.39-5.324a.794.794 0 0 1 1.452.653l-2.39 5.324a.796.796 0 0 1-.651.473z" fill="#d33833"/>
  <path d="M15.1 8.148c-.067 0-.134-.008-.203-.025-.042-.008-4.175-1.06-5.308-4.178-.175-.383.004-.834.387-1.007.377-.171.835.004 1.007.386.788 1.729 3.698 2.587 3.738 2.598.407.11.647.528.537.935a.795.795 0 0 1-.758.29z" fill="#d33833"/>
  <path d="M18.29 9.05a.797.797 0 0 1-.71-.434c-.15-.294-.078-.654.172-.864.018-.016 1.878-1.53 1.855-3.152-.005-.438.349-.798.788-.804h.01c.434 0 .79.351.796.795.022 2.335-2.389 4.337-2.495 4.419a.79.79 0 0 1-.417.04z" fill="#d33833"/>
  <path d="M20.368 11.321a.794.794 0 0 1-.794-.794c0-.31.179-.586.457-.715.017-.008 1.705-.766 2.298-2.23a.794.794 0 0 1 1.045-.407c.363.162.53.589.372.955-.873 2.146-3.174 3.157-3.323 3.184a.791.791 0 0 1-.055.007z" fill="#d33833"/>
  <path d="M20.02 15.835a.793.793 0 0 1-.698-.41 20.265 20.265 0 0 0-1.63-2.511.795.795 0 0 1 .15-1.114c.316-.236.767-.165 1.02.164a21.698 21.698 0 0 1 1.857 2.857.796.796 0 0 1-.326 1.078c-.112.052-.235.08-.372.08z" fill="#d33833"/>
  <path d="M24.173 18.97c-.2 0-.396-.074-.548-.214-.303-.297-.309-.78-.013-1.083.141-.143 3.456-3.553 0-9.193-.193-.318-.095-.732.224-.924a.792.792 0 0 1 1.132.309c3.318 5.427 1.078 9.735-.237 11.072a.772.772 0 0 1-.558.034z" fill="#d33833"/>
  <path d="M23.825 21.306c-.273 0-.539-.125-.71-.352a21.598 21.598 0 0 0-1.922-2.262.795.795 0 0 1 .064-1.124c.304-.272.782-.233 1.048.064.652.676 1.258 1.397 1.857 2.176.279.369.207.893-.164 1.172a.78.78 0 0 1-.173.326z" fill="#d33833"/>
  <path d="M21.4 23.971c-.167 0-.336-.045-.491-.138l-4.073-2.513c-.364-.225-.475-.699-.25-1.059a.792.792 0 0 1 1.066-.283l4.073 2.513a.792.792 0 0 1 .25 1.059.792.792 0 0 1-.681.42z" fill="#d33833"/>
  <path d="M15.28 19.86a.79.79 0 0 1-.586-.26c-.266-.304-.242-.782.062-1.048.142-.124 3.512-3.016 8.286-1.89.42.099.68.522.582.942-.1.42-.52.695-.942.582-3.874-.913-6.704 1.52-6.75 1.56a.79.79 0 0 1-.26.057z" fill="#d33833"/>
</svg>
