
<svg xmlns="http://www.w3.org/2000/svg" viewBox="0 0 32 32" width="64" height="64">
  <path fill="#326ce5" d="M15.9.476a2.14 2.14 0 0 0-.823.218L3.932 6.01c-.582.277-1.005.804-1.15 1.432L.305 19.573a2.14 2.14 0 0 0 .29 1.644l7.293 10.59a2.14 2.14 0 0 0 1.398.784l13.545 1.324a2.14 2.14 0 0 0 1.656-.386l9.88-7.52a2.14 2.14 0 0 0 .784-1.425l1.106-13.637a2.14 2.14 0 0 0-.407-1.65l-7.65-10.24a2.14 2.14 0 0 0-1.384-.755L16.19.476a2.14 2.14 0 0 0-.29 0zM16.001 4.06l9.65 3.062-3.895 12.315-10.493-3.36z"/>
</svg>
