
<svg xmlns="http://www.w3.org/2000/svg" viewBox="0 0 32 32" width="64" height="64">
  <path fill="#e6522c" d="M16 0a15.984 15.984 0 1 0 16 16A15.999 15.999 0 0 0 16 0zm-5.669 24.542c-.338.094-.576-.094-.338-.317a11.376 11.376 0 0 1 .995-.755c.058 0 .17.094.207.16a.682.682 0 0 1-.865.912zm5.879-11.856v1.198c0 3.139-2.676 4.035-2.676 4.035s2.788 1.122 2.788 4.204c0 .442-.044 5.877-5.671 5.877H5.998v-2.45c.108 0 .824.048 1.205.048 1.896 0 2.457-1.265 2.457-2.45v-8.026c0-1.556.507-2.438 1.784-2.438zm9.798 12.147h-5.37V12.437h1.989v10.557h3.381zM29.9 26.583a9.11 9.11 0 0 1-5.633-1.814.423.423 0 0 1-.17-.28c0-.094.057-.19.17-.236.506-.189 1.05-.424 1.574-.696.112-.046.244-.046.338.048a6.73 6.73 0 0 0 3.627 1.122c1.274 0 1.876-.634 1.876-1.257 0-.87-.657-1.367-2.02-1.851-1.97-.7-4.358-1.58-4.358-4.07 0-1.93 1.406-3.325 3.834-3.325a8.638 8.638 0 0 1 4.709 1.395.422.422 0 0 1 .169.233c0 .094-.057.189-.17.233-.505.234-1.05.515-1.574.787a.474.474 0 0 1-.337.047 6.116 6.116 0 0 0-2.826-.696c-1.05 0-1.631.412-1.631 1.084 0 .833.9 1.235 2.433 1.814 2.151.8 4.246 1.813 4.246 4.16 0 1.98-1.556 3.453-4.455 3.453z"/>
  <path fill="#e6522c" d="M14.947 9.817c-1.065 0-1.687.778-1.687 2.434v9.232h2.788V9.817z"/>
</svg>
